<svg width="180" height="180" fill="none" xmlns="http://www.w3.org/2000/svg"><path d="M169.772 10.69V6.184h-2.238v4.506h-4.507v2.237h4.507v4.508h2.238v-4.508h4.506V10.69h-4.506Zm-45.001-4.506h-2.238v4.506h-4.506v2.237h4.506v4.508h2.238v-4.508h4.506V10.69h-4.506V6.184Zm-44.996 0h-2.238v4.506h-4.506v2.237h4.506v4.508h2.238v-4.508h4.506V10.69h-4.506V6.184Zm-44.999 0h-2.238v4.506h-4.507v2.237h4.507v4.508h2.238v-4.508h4.506V10.69h-4.506V6.184Zm112.495 22.501h-2.238v4.506h-4.506v2.237h4.506v4.506h2.238v-4.506h4.507v-2.237h-4.507v-4.506Zm-44.995 0h-2.238v4.506h-4.507v2.237h4.507v4.506h2.238v-4.506h4.506v-2.237h-4.506v-4.506Zm-45.001 0h-2.238v4.506h-4.506v2.237h4.506v4.506h2.238v-4.506h4.506v-2.237h-4.506v-4.506Zm-45 0h-2.238v4.506H5.531v2.237h4.506v4.506h2.238v-4.506h4.507v-2.237h-4.507v-4.506Zm157.497 22.5h-2.238v4.506h-4.507v2.237h4.507v4.506h2.238v-4.506h4.506v-2.237h-4.506v-4.506Zm-45.001 0h-2.238v4.506h-4.506v2.237h4.506v4.506h2.238v-4.506h4.506v-2.237h-4.506v-4.506Zm-44.996 0h-2.238v4.506h-4.506v2.237h4.506v4.506h2.238v-4.506h4.506v-2.237h-4.506v-4.506Zm-44.999 0h-2.238v4.506h-4.507v2.237h4.507v4.506h2.238v-4.506h4.506v-2.237h-4.506v-4.506Zm112.495 22.496h-2.238v4.508h-4.506v2.237h4.506v4.506h2.238v-4.506h4.507v-2.237h-4.507V73.68Zm-44.995 0h-2.238v4.508h-4.507v2.237h4.507v4.506h2.238v-4.506h4.506v-2.237h-4.506V73.68Zm-45.001 0h-2.238v4.508h-4.506v2.237h4.506v4.506h2.238v-4.506h4.506v-2.237h-4.506V73.68Zm-45 0h-2.238v4.508H5.531v2.237h4.506v4.506h2.238v-4.506h4.507v-2.237h-4.507V73.68Zm157.497 22.501h-2.238v4.506h-4.507v2.238h4.507v4.506h2.238v-4.506h4.506v-2.238h-4.506v-4.506Zm-45.001 0h-2.238v4.506h-4.506v2.238h4.506v4.506h2.238v-4.506h4.506v-2.238h-4.506v-4.506Zm-44.996 0h-2.238v4.506h-4.506v2.238h4.506v4.506h2.238v-4.506h4.506v-2.238h-4.506v-4.506Zm-44.999 0h-2.238v4.506h-4.507v2.238h4.507v4.506h2.238v-4.506h4.506v-2.238h-4.506v-4.506Zm112.495 22.5h-2.238v4.506h-4.506v2.237h4.506v4.506h2.238v-4.506h4.507v-2.237h-4.507v-4.506Zm-44.995 0h-2.238v4.506h-4.507v2.237h4.507v4.506h2.238v-4.506h4.506v-2.237h-4.506v-4.506Zm-45.001 0h-2.238v4.506h-4.506v2.237h4.506v4.506h2.238v-4.506h4.506v-2.237h-4.506v-4.506Zm-45 0h-2.238v4.506H5.531v2.237h4.506v4.506h2.238v-4.506h4.507v-2.237h-4.507v-4.506Zm157.497 22.5h-2.238v4.507h-4.507v2.238h4.507v4.506h2.238v-4.506h4.506v-2.238h-4.506v-4.507Zm-45.001 0h-2.238v4.507h-4.506v2.238h4.506v4.506h2.238v-4.506h4.506v-2.238h-4.506v-4.507Zm-44.996 0h-2.238v4.507h-4.506v2.238h4.506v4.506h2.238v-4.506h4.506v-2.238h-4.506v-4.507Zm-44.999 0h-2.238v4.507h-4.507v2.238h4.507v4.506h2.238v-4.506h4.506v-2.238h-4.506v-4.507Zm112.495 22.501h-2.238v4.506h-4.506v2.237h4.506v4.506h2.238v-4.506h4.507v-2.237h-4.507v-4.506Zm-44.995 0h-2.238v4.506h-4.507v2.237h4.507v4.506h2.238v-4.506h4.506v-2.237h-4.506v-4.506Zm-45.001 0h-2.238v4.506h-4.506v2.237h4.506v4.506h2.238v-4.506h4.506v-2.237h-4.506v-4.506Zm-45 0h-2.238v4.506H5.531v2.237h4.506v4.506h2.238v-4.506h4.507v-2.237h-4.507v-4.506Z" fill="#000" fill-opacity=".1"/></svg>